<svg xmlns="http://www.w3.org/2000/svg" width="122" height="83.054" viewBox="0 0 122 83.054">
  <g id="kopysf" transform="translate(-0.02 -0.009)">
    <path id="Path_3" data-name="Path 3" d="M2.044,15.141l3.965-3.906,7.636,11.777h2.142L7.342,10.078,15.007,2.35H12.895l-10.85,10.8V2.35H.28V23.012H2.044Z" transform="translate(-0.151 -1.36)" fill="#fff"/>
    <path id="Path_4" data-name="Path 4" d="M76.636,99.892a7.867,7.867,0,0,0,2.967,2.041,10.059,10.059,0,0,0,3.717.679,9.639,9.639,0,0,0,3.734-.708,8,8,0,0,0,2.934-2.1A9.824,9.824,0,0,0,91.913,96.4a14.748,14.748,0,0,0,.692-4.732,14.01,14.01,0,0,0-.708-4.673,9.853,9.853,0,0,0-1.936-3.353A7.766,7.766,0,0,0,87.026,81.6a9.937,9.937,0,0,0-3.7-.679,9.53,9.53,0,0,0-3.7.708,8.26,8.26,0,0,0-2.967,2.1,9.685,9.685,0,0,0-1.97,3.416A16.08,16.08,0,0,0,74.7,96.51,9.732,9.732,0,0,0,76.636,99.892ZM76.305,88a8.8,8.8,0,0,1,1.4-2.934,6.286,6.286,0,0,1,2.33-1.907,7.393,7.393,0,0,1,3.282-.683,7.125,7.125,0,0,1,3.185.683,6.458,6.458,0,0,1,2.326,1.907A8.776,8.776,0,0,1,90.266,88a13.6,13.6,0,0,1,.49,3.772,13.935,13.935,0,0,1-.474,3.772,8.562,8.562,0,0,1-1.421,2.934,6.492,6.492,0,0,1-2.33,1.911,7.209,7.209,0,0,1-3.21.679,7.452,7.452,0,0,1-3.282-.679,6.513,6.513,0,0,1-2.347-1.911,8.466,8.466,0,0,1-1.4-2.934,14.468,14.468,0,0,1-.461-3.772A13.939,13.939,0,0,1,76.305,88Z" transform="translate(-57.346 -80.91)" fill="#fff"/>
    <path id="Path_5" data-name="Path 5" d="M129.425,94.44h4.862a11.345,11.345,0,0,0,3.7-.507,5.725,5.725,0,0,0,2.284-1.375,4.748,4.748,0,0,0,1.173-2.024,8.73,8.73,0,0,0,.331-2.431,8.1,8.1,0,0,0-.319-2.3,4.317,4.317,0,0,0-1.14-1.894,5.775,5.775,0,0,0-2.276-1.287,12,12,0,0,0-3.7-.478H127.69V102.8h1.735Zm0-10.762h4.862a11.9,11.9,0,0,1,2.779.272,4.246,4.246,0,0,1,1.752.838,3.009,3.009,0,0,1,.909,1.4,6.865,6.865,0,0,1,.26,2,7.6,7.6,0,0,1-.23,1.966,3.105,3.105,0,0,1-.868,1.475,4.258,4.258,0,0,1-1.735.943,10.029,10.029,0,0,1-2.837.331h-4.891Z" transform="translate(-88.539 -81.619)" fill="#fff"/>
    <path id="Path_6" data-name="Path 6" d="M90.6,178.629l-9.526-.838-8.86,18.227-9.12-18.378.042.163-9.526.838a3.737,3.737,0,0,1,.943,2.888L67.625,206v13.7h8.667V206l13.357-24.538A3.785,3.785,0,0,1,90.6,178.629Z" transform="translate(-45.506 -137.095)" fill="#fff"/>
    <path id="Path_7" data-name="Path 7" d="M174.307,181.283a7.5,7.5,0,0,1,4.451-1.136q4.245,0,9.979,3.168l3.286-6.634a28.143,28.143,0,0,0-6.391-3.139,26.249,26.249,0,0,0-8.189-1.1,15.125,15.125,0,0,0-9.949,3.772,11.894,11.894,0,0,0-3.734,9.145,10.878,10.878,0,0,0,1.823,6.454,12.929,12.929,0,0,0,4.333,3.944,57.108,57.108,0,0,0,6.286,2.867q6.391,2.515,6.4,5.918a4.035,4.035,0,0,1-2.033,3.793,9.467,9.467,0,0,1-4.782,1.165,15.461,15.461,0,0,1-5.289-1.081,20.888,20.888,0,0,1-5.2-2.749l-3.826,6.752a24.429,24.429,0,0,0,7.234,3.554,26.99,26.99,0,0,0,7.829,1.165,18.022,18.022,0,0,0,8.126-1.7,12.284,12.284,0,0,0,5.168-4.61,11.919,11.919,0,0,0,1.764-6.286,12.988,12.988,0,0,0-1.467-6.513,11.659,11.659,0,0,0-3.671-4.036,25.565,25.565,0,0,0-5.318-2.6,28.628,28.628,0,0,1-6.127-3.017,4.483,4.483,0,0,1-2.3-3.676A3.972,3.972,0,0,1,174.307,181.283Z" transform="translate(-108.161 -134.075)" fill="#fff"/>
    <path id="Path_8" data-name="Path 8" d="M253.013,100.465V92.1H225.52v43.985h8.667V118.813H250.5v-8.365H234.187v-9.983Z" transform="translate(-130.993 -53.496)" fill="#fff"/>
    <path id="Path_9" data-name="Path 9" d="M87.812,159.345a7.162,7.162,0,1,0-7.162-7.158A7.162,7.162,0,0,0,87.812,159.345Z" transform="translate(-61.213 -118.146)" fill="#fff"/>
    <path id="Path_10" data-name="Path 10" d="M42.43,167.9l9.539-.838-.046-.163c-.381-1.354-3.642-11.1-17.6-6.5l3.374,3.382A20.8,20.8,0,0,1,42.43,167.9Z" transform="translate(-34.3 -126.369)" fill="#fff"/>
    <path id="Path_11" data-name="Path 11" d="M47.156,174.278a20.52,20.52,0,0,0-4.736-4.128h0a79.95,79.95,0,0,1,5.675,7.07v-.055A3.737,3.737,0,0,0,47.156,174.278Z" transform="translate(-39.005 -132.744)" fill="#fff"/>
    <path id="Path_12" data-name="Path 12" d="M133.316,163.83h0l3.382-3.437c-15.021-5-17.7,6.773-17.7,6.773h0l9.555.838A21.3,21.3,0,0,1,133.316,163.83Z" transform="translate(-83.491 -126.357)" fill="#fff"/>
    <path id="Path_13" data-name="Path 13" d="M145.33,169.79h0a20.9,20.9,0,0,0-4.9,4.157,3.738,3.738,0,0,0-.985,2.846v.117A89.3,89.3,0,0,1,145.33,169.79Z" transform="translate(-95.345 -132.535)" fill="#fff"/>
  </g>
</svg>
